<?xml version="1.0" standalone="no"?>
<!DOCTYPE svg PUBLIC "-//W3C//DTD SVG 20010904//EN"
 "http://www.w3.org/TR/2001/REC-SVG-20010904/DTD/svg10.dtd">
<svg version="1.0" xmlns="http://www.w3.org/2000/svg"
 width="500.000000pt" height="500.000000pt" viewBox="0 0 500.000000 500.000000"
 preserveAspectRatio="xMidYMid meet">
<metadata>
Created by potrace 1.11, written by Peter Selinger 2001-2013
</metadata>
<g transform="translate(0.000000,500.000000) scale(0.100000,-0.100000)"
fill="#000000" stroke="none">
<path d="M2215 4988 c-548 -62 -1091 -324 -1485 -718 -400 -400 -658 -940
-719 -1502 -14 -125 -14 -411 0 -536 61 -562 319 -1102 719 -1502 400 -400
940 -658 1502 -719 125 -14 411 -14 536 0 562 61 1102 319 1502 719 400 400
658 940 719 1502 14 125 14 411 0 536 -61 562 -319 1102 -719 1502 -400 400
-940 658 -1502 719 -115 13 -439 12 -553 -1z m1535 -1153 l0 -285 -140 0 -140
0 0 -874 c0 -533 -4 -913 -10 -975 -51 -493 -338 -796 -817 -861 -117 -16
-389 -8 -493 15 -392 86 -649 323 -747 690 -24 93 -26 118 -31 358 l-4 257
300 0 300 0 4 -207 c4 -181 8 -216 27 -272 41 -118 107 -191 221 -245 63 -30
69 -31 205 -31 136 0 142 1 207 32 36 17 85 50 108 73 48 48 95 141 110 219 6
34 10 378 10 937 l0 884 -165 0 -165 0 0 285 0 285 610 0 610 0 0 -285z"/>
</g>
</svg>
