<?xml version="1.0" encoding="utf-8"?>
<!-- Generator: Adobe Illustrator 24.1.1, SVG Export Plug-In . SVG Version: 6.00 Build 0)  -->
<svg version="1.1" xmlns="http://www.w3.org/2000/svg" xmlns:xlink="http://www.w3.org/1999/xlink" x="0px" y="0px"
	 viewBox="850 400 350 380" style="enable-background:new 0 0 1920 1080;" xml:space="preserve">
<g id="Layer_1">
</g>
<g id="Layer_2">
	<path d="M1102.32,435.01v36.16c-19.96-22.25-48.4-36.17-80-36.17c-44.56,0-82.88,27.67-99.91,67.36
		c-11.35,21.09-17.04,47.07-17.04,77.95L906,646l0.31,16.06v42.71c0,4.94-1.47,8.4-4.4,10.39c-2.93,1.99-7.53,2.99-13.8,2.99v39.43
		c22.23,0,39.42-4.82,51.55-14.46c12.13-9.64,18.19-22.42,18.19-38.35v-89.66h45.2v30.53h0.05h51.84h0.05V499.11
		c31.54,10.38,47.32,37.45,47.32,81.2v65.33h51.89V435.01H1102.32z M1003.06,564.75h-45.18c3.25-35.41,18.32-58.4,45.18-68.99
		V564.75z"/>
</g>
</svg>
